{"asset":{"version":"2.0","generator":"babylon.js glTF exporter for 3dsmax 2019 v20200615.2"},"scene":0,"scenes":[{"nodes":[0]}],"nodes":[{"children":[1,2],"scale":[100,100,100],"name":"root"},{"mesh":0,"scale":[1,1.23137736,1.94860089],"name":"Box002"},{"name":"Default light"}],"meshes":[{"primitives":[{"attributes":{"POSITION":1,"NORMAL":2,"TEXCOORD_0":3},"indices":0,"material":0}],"name":"Box002"}],"accessors":[{"bufferView":0,"componentType":5123,"count":21348,"type":"SCALAR","name":"accessorIndices"},{"bufferView":1,"componentType":5126,"count":21348,"max":[-1.691412,112.649857,27.5936584],"min":[-2.69142342,47.9661636,-26.9125614],"type":"VEC3","name":"accessorPositions"},{"bufferView":1,"byteOffset":256176,"componentType":5126,"count":21348,"type":"VEC3","name":"accessorNormals"},{"bufferView":2,"componentType":5126,"count":21348,"type":"VEC2","name":"accessorUVs"},{"bufferView":3,"componentType":5126,"count":10,"max":[33.3333321],"min":[0],"type":"SCALAR","name":"accessorAnimationInput"},{"bufferView":4,"componentType":5126,"count":10,"type":"VEC4","name":"accessorAnimationRotations"}],"bufferViews":[{"buffer":0,"byteLength":42696,"name":"bufferViewScalar"},{"buffer":0,"byteOffset":42696,"byteLength":512352,"byteStride":12,"name":"bufferViewFloatVec3"},{"buffer":0,"byteOffset":555048,"byteLength":170784,"byteStride":8,"name":"bufferViewFloatVec2"},{"buffer":0,"byteOffset":725832,"byteLength":40,"name":"bufferViewAnimationFloatScalar"},{"buffer":0,"byteOffset":725872,"byteLength":160,"name":"bufferViewAnimationFloatVec4"}],"buffers":[{"uri":"data:application/octet-stream;base64,","byteLength":726032}],"materials":[{"pbrMetallicRoughness":{"baseColorFactor":[0.309803933,0,0,1],"metallicFactor":0,"roughnessFactor":0.258795977},"emissiveFactor":[0.2901961,0.2901961,0.2901961],"name":"07 - Default"}],"animations":[{"channels":[{"sampler":0,"target":{"node":1,"path":"rotation"}}],"samplers":[{"input":4,"output":5}],"name":"All Animations"}]}